<?xml version="1.0" encoding="UTF-8" standalone="no"?>
<!-- Created with Inkscape (http://www.inkscape.org/) -->

<svg
   version="1.1"
   id="svg1"
   width="974.59949"
   height="974.59949"
   viewBox="0 0 974.59949 974.59949"
   xml:space="preserve"
   xmlns="http://www.w3.org/2000/svg"
   xmlns:svg="http://www.w3.org/2000/svg"><defs
     id="defs1" /><g
     id="g1"
     transform="translate(-16.230896,-25.776245)"><circle
       style="display:inline;fill:#ffffff;fill-opacity:1;stroke-width:1.32779"
       id="path2"
       cx="503.53064"
       cy="513.07599"
       r="487.29974" /><path
       style="fill:#000000"
       d="M 492,880.41016 C 346.98357,873.2126 210.85649,773.50983 161.25849,636.88394 c -13.82453,-16.21738 -8.34367,-56.53708 0.32839,-15.44854 48.75476,156.09266 212.15718,264.67277 374.69454,253.27136 32.51073,2.68772 -41.23838,9.19083 -44.28142,5.7034 z M 494,838.341 C 353.87052,831.69153 222.36095,726.56909 191.01223,588.82009 225.5056,734.58826 371.7313,841.09647 520.17031,837.36271 534.66834,840.28905 495.56958,838.23865 494,838.341 Z M 435,798.5 c 1.14858,-2.11254 1.14858,2.11254 0,0 z m -3.66667,-1.16667 c 2.3126,-2.46827 0.82585,2.49381 0,0 z m -3,-1 c 2.3126,-2.46827 0.82585,2.49381 0,0 z m 16,0 c 2.3126,-2.46827 0.82585,2.49381 0,0 z M 422.5,795 c -4.23285,-3.74375 14.99191,5.89976 0,0 z m 16.83333,0.33333 c 2.3126,-2.46827 0.82585,2.49381 0,0 z m -3,-1 c 2.3126,-2.46827 0.82585,2.49381 0,0 z m -19.76022,-1.22875 c -2.93864,-5.38952 9.61341,5.45903 0,0 z m 15.76022,0.22875 c 2.3126,-2.46827 0.82585,2.49381 0,0 z M 423,791.81967 C 330.01436,770.20843 255.9371,692.0361 225.65714,603.25275 c -5.34872,-13.00073 -6.77281,-36.00639 1.47069,-9.60413 25.78637,82.45408 88.38383,151.49873 167.48549,185.95628 9.33908,4.37356 19.18744,7.53576 28.38668,12.21477 z M 387,778.5 c -1.14858,-2.11254 -1.14858,2.11254 0,0 z m -2,-1 c -1.14858,-2.11254 -1.14858,2.11254 0,0 z m -2,-0.94098 c -0.6018,-4.15213 -2.91951,1.23891 0,0 z m -4,-2 c -0.6018,-4.15213 -2.91951,1.23891 0,0 z M 272,685.5 c -1.14858,-2.11254 -1.14858,2.11254 0,0 z m -32,-54 c -1.14858,-2.11254 -1.14858,2.11254 0,0 z m 188.8125,160.81689 c 4.73672,-3.27689 0.8038,2.64437 0,0 z M 412,790.94098 c 3.07372,-2.50111 1.41202,4.10779 0,0 z m 73.5,-66.03213 c -71.86845,-9.73478 -142.21026,-57.00459 -167.91778,-126.0625 10.08319,2.61744 27.62691,53.36619 50.76784,65.45966 33.59913,30.63266 76.52611,51.10688 121.64994,57.12067 3.7044,2.94033 -2.84461,8.97676 -4.5,3.48217 z M 384,683.5 c -1.14858,-2.11254 -1.14858,2.11254 0,0 z m -28,-27.94098 c -1.41202,-4.10779 -3.07372,2.50111 0,0 z M 353,654.5 c -1.14858,-2.11254 -1.14858,2.11254 0,0 z m 184.33333,71.83333 c 2.3126,-2.46827 0.82585,2.49381 0,0 z m -39.93508,-2.01964 c -16.87945,-9.64526 -63.50722,-18.92274 -18.70981,-11.15003 31.17563,6.49068 91.20969,-0.99717 103.8452,-11.35135 -3.4176,2.81953 46.78533,-20.41752 58.46008,-33.86976 23.16589,-19.02287 42.12208,-43.41284 53.66726,-71.15188 -7.72444,33.90266 -40.01646,56.14858 -62.84789,80.67928 3.34617,4.40973 41.55585,-33.87643 50.21975,-51.58106 11.06263,-17.8163 29.33087,-43.37204 10.46579,-8.5761 -37.09366,66.70117 -114.44248,107.44245 -190.26379,103.35862 84.30856,9.67091 165.06486,-45.46966 201.54083,-119.47417 15.08891,-18.09381 -15.74878,38.25351 -24.60053,45.56265 -41.84361,55.56446 -113.5045,82.38917 -181.77689,77.5538 z M 643.96858,680.75 c -5.17979,0.19409 -3.64551,7.04534 0,0 z m 27.28802,-24.62323 c -2.47862,-6.12581 -3.50536,6.70047 0,0 z M 675,652.5 c -1.14858,-2.11254 -1.14858,2.11254 0,0 z m -114.1875,69.81689 c 4.73672,-3.27689 0.8038,2.64437 0,0 z m 4,-1 c 4.73672,-3.27689 0.8038,2.64437 0,0 z m 4,-1 c 4.73672,-3.27689 0.8038,2.64437 0,0 z m 3.52083,-0.98356 c 2.3126,-2.46827 0.82585,2.49381 0,0 z m 3,-1 c 2.3126,-2.46827 0.82585,2.49381 0,0 z M 579,717.5 c 1.14858,-2.11254 1.14858,2.11254 0,0 z m 11,-4 c 1.14858,-2.11254 1.14858,2.11254 0,0 z m -95.5,-1.17895 c -15.62733,2.079 -77.67051,-21.23342 -34.89851,-7.70337 14.29564,6.71105 68.18487,6.76072 57.87387,8.0769 -7.65985,0.16047 -15.32391,-2.3e-4 -22.97536,-0.37353 z M 592.5,712 c 2.70691,-4.67494 0.004,3.43341 0,0 z M 445,708.5 c 1.14858,-2.11254 1.14858,2.11254 0,0 z m -8,-2.65792 c -50.48458,-20.30957 -95.08499,-60.02587 -113.49417,-112.11114 21.50421,25.62781 33.86877,58.91529 62.90752,78.01183 10.66514,12.14174 59.21795,32.16248 50.58665,34.09931 z M 358,649.5 c -1.14858,-2.11254 -1.14858,2.11254 0,0 z m -17.33333,-24.16667 c -2.49381,0.82585 2.46827,2.3126 0,0 z M 337,617.5 c -1.14858,-2.11254 -1.14858,2.11254 0,0 z m 270,88 c 1.14858,-2.11254 1.14858,2.11254 0,0 z m -28.5,-7.37956 c 49.96413,-16.66765 84.47358,-60.09526 110.40485,-103.83918 -8.5376,42.79079 -49.91127,70.57864 -84.0816,93.36202 -4.66145,2.16941 -31.46206,15.16326 -26.32325,10.47716 z M 673.12854,625.75 c 1.29004,-6.20404 -5.51027,9.744 0,0 z M 428.427,693.52147 c -3.21383,-5.23308 7.68547,4.91812 0,0 z m -16.02249,-8.67598 c 1.60938,-2.14584 1.83517,5.24197 0,0 z M 653,675.5 c 1.14858,-2.11254 1.14858,2.11254 0,0 z M 386.87244,664.25 c -2.20795,-4.5007 7.40678,7.84753 0,0 z M 377,655.5 c 1.14858,-2.11254 1.14858,2.11254 0,0 z m -7.54705,-7.75 c -9.80656,-11.17435 18.09043,17.86479 0,0 z m 169.88038,1.58333 c 2.3126,-2.46827 0.82585,2.49381 0,0 z m 5,-1 c 2.3126,-2.46827 0.82585,2.49381 0,0 z M 548,647.5 c 1.14858,-2.11254 1.14858,2.11254 0,0 z m -39.23209,-1.22473 c 4.67417,0.0118 10.76224,0.0272 0,0 z M 495.75,645.33772 c 4.05866,-3.23579 2.12462,2.37362 0,0 z M 333,644.5 c 1.14858,-2.11254 1.14858,2.11254 0,0 z m 156.8125,-0.18311 c 4.73672,-3.27689 0.8038,2.64437 0,0 z m -5.47917,-0.98356 c 2.3126,-2.46827 0.82585,2.49381 0,0 z M 560,643.5 c 1.14858,-2.11254 1.14858,2.11254 0,0 z m -196.59501,-2.75 c -4.17243,-6.27958 8.7241,10.25101 0,0 z m 116.92834,1.58333 c 2.3126,-2.46827 0.82585,2.49381 0,0 z m 7.5884,-0.88512 c -24.00722,0.75334 -69.84337,-34.66631 -68.58212,-39.06533 25.45737,27.50246 64.65762,38.30308 101.06313,40.21574 -10.83231,0.97919 -21.70645,-0.0163 -32.48101,-1.15041 z m 74.4116,0.88512 c 2.3126,-2.46827 0.82585,2.49381 0,0 z m -231.92882,-1.48784 c 1.60938,-2.14584 1.83517,5.24197 0,0 z M 477,641.5 c 1.14858,-2.11254 1.14858,2.11254 0,0 z m 88,0 c 1.14858,-2.11254 1.14858,2.11254 0,0 z m 2,-1 c 1.14858,-2.11254 1.14858,2.11254 0,0 z m 2,-1 c 1.14858,-2.11254 1.14858,2.11254 0,0 z m 2,-1 c 1.14858,-2.11254 1.14858,2.11254 0,0 z m -107,-1 c 1.14858,-2.11254 1.14858,2.11254 0,0 z m 109,0 c 1.14858,-2.11254 1.14858,2.11254 0,0 z m 2,-1 c 1.14858,-2.11254 1.14858,2.11254 0,0 z m -216.59549,-1.65451 c 1.25833,-2.44927 2.10372,5.32142 0,0 z M 459,635.5 c 1.14858,-2.11254 1.14858,2.11254 0,0 z m 118,0 c 1.14858,-2.11254 1.14858,2.11254 0,0 z m -120,-1 c 1.14858,-2.11254 1.14858,2.11254 0,0 z M 579.5,634 c 2.70691,-4.67494 0.004,3.43341 0,0 z M 455,633.5 c 1.14858,-2.11254 1.14858,2.11254 0,0 z m -2,-1 c 1.14858,-2.11254 1.14858,2.11254 0,0 z m 129,0.0704 c 3.62386,-5.58299 4.95544,0.68585 0,0 z M 354.87244,630.25 c -2.20795,-4.5007 7.40678,7.84753 0,0 z M 451,631.5 c 1.14858,-2.11254 1.14858,2.11254 0,0 z m 40.5,-1.51412 c -23.08043,1.63083 -84.7283,-41.25585 -27.91696,-35.19505 42.52928,-0.3694 85.10791,-1.32337 127.59409,1.19151 -21.00609,31.79068 -64.41967,39.75485 -99.67713,34.00354 z M 449,630.5 c 1.14858,-2.11254 1.14858,2.11254 0,0 z m 138,-0.86381 c 5.41416,-8.55953 6.85291,-0.61766 0,0 z m -234.59549,-2.7907 c 1.60938,-2.14584 1.83517,5.24197 0,0 z M 349.23206,622.25 c -13.8659,-19.25542 7.33243,6.93843 0,0 z M 595.5,623 c 7.79023,-8.34374 -4.17024,6.6639 0,0 z m 9,-8 c 19.99778,-19.58123 -17.61669,19.40214 0,0 z m -260.09549,-0.15451 c 1.60938,-2.14584 1.83517,5.24197 0,0 z M 343,612.5 c 1.14858,-2.11254 1.14858,2.11254 0,0 z m -30,-1 c 1.14858,-2.11254 1.14858,2.11254 0,0 z m 286,0.12244 c 4.57261,-3.84559 3.53555,-2.97341 0,0 z m -260.55161,-7.72492 c -11.92449,-26.20405 13.85228,25.56119 0,0 z M 311,607.5 c 1.14858,-2.11254 1.14858,2.11254 0,0 z m 397,-4 c 1.14858,-2.11254 1.14858,2.11254 0,0 z m 1,-2 c 1.14858,-2.11254 1.14858,2.11254 0,0 z m 2,-4 c 1.14858,-2.11254 1.14858,2.11254 0,0 z m 1,-2 c 1.14858,-2.11254 1.14858,2.11254 0,0 z m -378.875,-3.125 c -3.89443,-11.09223 5.1959,7.83652 0,0 z m 123.79809,0.87584 c -21.40174,6.05349 -38.74287,-10.08345 -7.43349,-5.51536 50.78376,0.10094 101.56979,0.15031 152.3507,-0.48082 -44.3614,13.53168 -91.34746,2.51306 -136.84528,6.07108 z M 713,593 c 1.01238,-2.78443 1.01238,2.78443 0,0 z m -304.16096,-1.77358 c -16.10761,-11.81054 8.73001,-0.3955 0,0 z M 282,591.5 c 1.14858,-2.11254 1.14858,2.11254 0,0 z m -1,-3 c 1.14858,-2.11254 1.14858,2.11254 0,0 z m 38.97525,-2.0651 c 0.91621,-15.80213 8.1116,12.72063 0,0 z m 372.72982,1.74434 c -8.30604,-12.13583 15.23263,-0.90681 0,0 z m -381.22542,-0.94455 c -8.23155,-15.37297 15.97186,6.32197 0,0 z M 699.43009,585.5 c 3.06825,-16.17697 1.18118,7.2999 0,0 z M 703,587.14922 c -1.44872,-12.34695 10.21933,-1.29775 0,0 z m 7.45929,-3.39922 c 8.30521,-15.54125 -0.51848,12.71545 0,0 z M 430.5,585.05633 c 47.66463,-0.76595 95.33576,-0.15022 143,0.31793 -47.66521,0.57517 -95.33684,0.32132 -143,-0.31793 z m 161,-1.09598 c 34.71089,-2.1075 14.92508,2.10295 -7.78433,0.42144 z m -210.5,-0.964 c 19.97637,-1.48643 39.60992,2.00505 9.972,0.46573 -3.32656,-0.0892 -6.64775,-0.31824 -9.972,-0.46573 z m 243.48653,0.0254 c 16.43415,-1.15406 72.48641,-2.37587 65.06848,-3.31952 -21.65607,1.63936 -43.33957,3.2235 -65.06848,3.31952 z M 363.8125,581.31689 c 4.73672,-3.27689 0.8038,2.64437 0,0 z M 367,581.5 c 1.14858,-2.11254 1.14858,2.11254 0,0 z m 114.82013,-2.24941 c 17.52466,-0.64606 69.68981,0.47736 23.13288,0.21199 -7.70983,0.0626 -15.43317,0.39839 -23.13288,-0.21199 z M 310.75,578.33772 c 4.05866,-3.23579 2.12462,2.37362 0,0 z m 6.58333,-0.004 c 2.31282,-2.46812 0.82581,2.4929 0,0 z M 428.25,578.26101 c 15.36155,-1.02234 8.22553,0.87218 0,0 z m 146.5,-0.004 c 18.32317,-0.94532 11.06859,0.81426 0,0 z M 298,577.5 c 1.14858,-2.11254 1.14858,2.11254 0,0 z m 4.76166,-0.20726 c 7.35705,-3.33358 2.72797,2.3272 0,0 z m 104.02186,-0.0311 c 11.4743,-2.47841 8.84307,2.5167 0,0 z m 194.46648,0.01 c 8.5556,0.003 10.99334,0.004 0,0 z m 108.01375,0.0109 c 9.92063,-3.47607 2.93801,2.32795 0,0 z M 271.5,575.41962 c -5.08131,-3.18234 23.72873,3.8637 0,0 z m 18.83333,0.91371 c 2.3126,-2.46827 0.82585,2.49381 0,0 z M 293,576.5 c 1.14858,-2.11254 1.14858,2.11254 0,0 z m 96.26903,-0.19299 c 5.10376,-3.21797 2.34837,2.37872 0,0 z m 58.23097,0.0799 c -89.27191,-5.0056 -181.94861,-5.2633 -266.38475,-37.24233 -19.80699,-31.32887 20.47892,15.80375 37.13056,10.53391 69.0675,17.95947 141.18098,19.64054 212.05936,24.26906 131.48899,5.42435 264.60231,-0.28065 393.33891,-27.98808 17.28131,-5.43766 24.61316,-51.36343 25.32788,-13.50277 -27.55079,26.42137 -73.81097,21.41093 -109.73463,31.51156 -96.66203,12.8847 -194.4139,12.65319 -291.73733,12.41865 z m 176.26791,-0.11165 c 4.67417,0.0118 10.76224,0.0272 0,0 z M 722,576.35453 c 18.85824,-3.41861 52.71987,-3.12721 14.55245,-0.39489 -4.84208,0.33158 -9.6985,0.52423 -14.55245,0.39489 z M 371.75,575.2766 c 12.39765,-2.61652 5.30079,1.78804 0,0 z m 270,0 c 12.39765,-2.61652 5.30079,1.78804 0,0 z m -291,-0.98233 c 8.63332,-3.50937 2.92104,2.3386 0,0 z m 305.9777,-0.016 c 13.38626,-2.70312 5.74479,1.82283 0,0 z m -401.96604,-0.98553 c 7.35705,-3.33358 2.72797,2.3272 0,0 z m 59.05084,0.0241 c 4.73672,-3.27689 0.8038,2.64437 0,0 z M 318,573.5 c 1.14858,-2.11254 1.14858,2.11254 0,0 z m 6.26903,-0.19299 c 5.10376,-3.21797 2.34837,2.37872 0,0 z m 14,0 c 5.10376,-3.21797 2.34837,2.37872 0,0 z M 671.25,573.27151 c 8.5556,0.003 10.99334,0.004 0,0 z m -423.98097,-0.96452 c 5.10376,-3.21797 2.34837,2.37872 0,0 z m 55.54347,0.01 c 4.73672,-3.27689 0.8038,2.64437 0,0 z m 382.95541,-0.0416 c 4.67417,0.0118 10.76224,0.0272 0,0 z M 237.25,571.31067 c 6.19495,-3.40521 2.6011,2.37029 0,0 z M 297,571.5 c 1.14858,-2.11254 1.14858,2.11254 0,0 z m 399.75,-0.20573 c 8.63332,-3.50937 2.92104,2.3386 0,0 z m -477.5,-1.10618 c -9.87004,-5.09545 25.86935,3.71366 0,0 z m 11,0.12258 c 6.19495,-3.40521 2.6011,2.37029 0,0 z m 54.4777,-0.0324 c 13.38626,-2.70312 5.74479,1.82283 0,0 z M 303,570 c 1.01238,-2.78443 1.01238,2.78443 0,0 z m 7.26903,0.30701 c 5.10376,-3.21797 2.34837,2.37872 0,0 z M 316,570.5 c 1.14858,-2.11254 1.14858,2.11254 0,0 z m 402.5,-1.57631 c 56.09279,-5.88727 -20.14105,5.80579 0,0 z M 777,570.5 c 1.14858,-2.11254 1.14858,2.11254 0,0 z m 17.5,-1.96785 c 35.65488,-11.00636 80.3288,-4.59977 107.48507,-34.70073 22.46307,-45.33706 -76.70291,-38.31237 -76.94048,-46.48772 28.76865,3.28677 112.50724,14.20278 76.64235,54.96748 -30.81441,20.79528 -89.40286,22.24588 -113.77067,27.30946 z m -524.75,0.80557 c 4.05866,-3.23579 2.12462,2.37362 0,0 z M 192,565.98041 c -28.78052,1.40897 -97.895299,-25.86891 -92.170049,-34.16188 16.560909,33.54592 106.842269,28.60901 104.155459,35.99866 l -4.99497,-0.71236 z M 264,568.5 c 1.14858,-2.11254 1.14858,2.11254 0,0 z m 17.75,-1.16228 c 4.05866,-3.23579 2.12462,2.37362 0,0 z m 5.58333,-0.004 c 2.31282,-2.46812 0.82581,2.4929 0,0 z m -36.58333,-0.996 c 4.05866,-3.23579 2.12462,2.37362 0,0 z m 24,0 c 4.05866,-3.23579 2.12462,2.37362 0,0 z m -31.98834,-1.04498 c 7.35705,-3.33358 2.72797,2.3272 0,0 z m 21.48834,0.0179 c 6.19495,-3.40521 2.6011,2.37029 0,0 z m 218.5,-0.0599 c 16.94632,-0.64624 67.95824,0.47462 22.69778,0.21411 -7.5648,0.0626 -15.14327,0.39329 -22.69778,-0.21411 z m 267.0625,0.0661 c 4.73672,-3.27689 0.8038,2.64437 0,0 z m 6.7784,-0.16981 c 24.99518,-7.62744 23.57174,0.46802 0,0 z M 229.5,564 c -3.21578,-3.89638 22.81754,5.51089 0,0 z m 27.75,0.31067 c 6.19495,-3.40521 2.6011,2.37029 0,0 z m 163.75,0.0363 c -47.01346,-2.721 -94.20013,-5.69242 -140.5,-14.75307 50.28821,1.02988 99.35577,15.44868 149.87953,13.99511 15.62492,1.25039 -4.58753,1.13058 -9.37953,0.75796 z M 310.10485,553.08596 c -3.38367,-7.01848 -12.30518,6.06971 0,0 z m 4.56182,-0.75263 c -2.3126,-2.46827 -0.82585,2.49381 0,0 z M 317,552.5 c -1.14858,-2.11254 -1.14858,2.11254 0,0 z m 248.25,11.75845 c 17.24116,-0.95963 10.19938,0.82958 0,0 z m -313.98097,-0.95144 c 5.10376,-3.21797 2.34837,2.37872 0,0 z M 597,563.06087 c 35.57282,-2.63242 15.36145,1.0116 -6.07945,0.48768 z m -390.66667,-0.72754 c 2.3126,-2.46827 0.82585,2.49381 0,0 z m 14.41667,0.004 c 4.05866,-3.23579 2.12462,2.37362 0,0 z M 243,562 c -2.97446,-3.71397 17.14809,6.1062 0,0 z m -42.25,-0.66228 c 4.05866,-3.23579 2.12462,2.37362 0,0 z m 14,0 c 4.05866,-3.23579 2.12462,2.37362 0,0 z m 230.75,-0.33105 c -13.65505,3.22812 -51.66076,-7.43785 -16.2175,-3.8631 63.84981,2.77236 127.76912,0.69127 191.60994,-1.2537 -58.07949,8.44387 -116.94255,5.07638 -175.39244,5.1168 z M 780,560.975 c 5.36319,-5.05891 17.403,2.83275 0,0 z m -584.25,-0.63728 c 4.05866,-3.23579 2.12462,2.37362 0,0 z m 13.51903,-0.0307 c 5.10376,-3.21797 2.34837,2.37872 0,0 z M 231.5,560 c -1.06379,-4.62294 21.44107,8.0011 0,0 z m 75.75,0.31067 c 6.19495,-3.40521 2.6011,2.37029 0,0 z m 329.01375,-0.0282 c 9.92063,-3.47607 2.93801,2.32795 0,0 z M 190.8125,559.31689 c 4.73672,-3.27689 0.8038,2.64437 0,0 z m 14,0 c 4.73672,-3.27689 0.8038,2.64437 0,0 z m 94.45653,-0.01 c 5.10376,-3.21797 2.34837,2.37872 0,0 z M 646,559.44164 c 9.90998,-4.04539 6.5454,3.36094 0,0 z m -460.1875,-1.12475 c 4.73672,-3.27689 0.8038,2.64437 0,0 z m 14,0 c 4.73672,-3.27689 0.8038,2.64437 0,0 z M 210,556.05972 c -34.84509,8.64175 -85.18384,-42.63206 -28.6426,-51.35816 -17.88286,5.18262 -43.68918,37.59868 -3.60091,41.45486 1.70979,1.33689 53.48582,13.71838 32.24351,9.9033 z m 181.07095,1.52577 c -4.47907,-8.04172 5.96657,2.67445 0,0 z M 657.5,558.5642 c 34.39184,-10.18847 105.29911,0.16366 111.32683,-39.37278 -39.96494,-25.14421 29.8124,2.73711 -1.25724,18.98697 -33.97752,15.1722 -73.40694,16.79162 -110.06959,20.38581 z m 138,-0.64382 c 12.44163,-6.38053 37.55128,-4.57633 10.30926,-0.54457 6.301,-2.86783 -17.43597,4.60543 -10.30926,0.54457 z m -614.75,-0.58266 c 4.05866,-3.23579 2.12462,2.37362 0,0 z m 14.0625,-0.0208 c 4.73672,-3.27689 0.8038,2.64437 0,0 z m 90.52083,0.0164 c 2.31262,-2.46827 0.82583,2.49384 0,0 z M 164,553.56822 c -31.27109,7.5065 -51.51024,-42.5758 -29.8879,-41.61622 -36.133655,18.04896 25.52403,40.41363 29.8879,41.61622 z m 25.75,2.7695 c 4.05866,-3.23579 2.12462,2.37362 0,0 z M 279,556.5 c 1.14858,-2.11254 1.14858,2.11254 0,0 z M 381,556 c 1.01238,-2.78443 1.01238,2.78443 0,0 z m -261,-0.5 c 1.14858,-2.11254 1.14858,2.11254 0,0 z m 65.8125,-0.18311 c 4.73672,-3.27689 0.8038,2.64437 0,0 z M 463,554.9741 c -49.44399,20.89972 -86.96366,-39.73217 -56.08204,-79.06148 27.49277,-68.75942 127.36676,-93.6581 181.49152,-41.16194 30.86736,27.50886 46.60653,72.8194 34.58939,113.04345 C 570.55732,560.24326 516.29701,553.79541 463,554.9741 Z M 116,554.5 c 1.14858,-2.11254 1.14858,2.11254 0,0 z m 65.8125,-0.18311 c 4.73672,-3.27689 0.8038,2.64437 0,0 z M 113,553.5 c 1.14858,-2.11254 1.14858,2.11254 0,0 z m 64.8125,-0.18311 c 4.73672,-3.27689 0.8038,2.64437 0,0 z m -68.47917,-0.98356 c 2.3126,-2.46827 0.82585,2.49381 0,0 z m 64.47917,-0.0164 c 4.73672,-3.27689 0.8038,2.64437 0,0 z M 323,552 c 1.01238,-2.78443 1.01238,2.78443 0,0 z m 505,0 c 2.02425,-4.15383 1.43143,3.90518 0,0 z m -721.66667,-0.66667 c 2.3126,-2.46827 0.82585,2.49381 0,0 z M 162,549.4158 c -28.89907,5.65694 -36.03255,-46.05843 -4.51618,-43.26532 -33.71017,0.63016 -18.67038,40.62881 4.51618,43.26532 z M 331,551.5 c 1.14858,-2.11254 1.14858,2.11254 0,0 z m 2,0 c 1.14858,-2.11254 1.14858,2.11254 0,0 z m 54.31821,-7.25 C 377.6555,503.3387 393.74639,456.20602 424.90144,428.53891 394.31657,460.66088 378.50626,508.44812 390.17662,552 Z M 400,462.5 c -1.14858,-2.11254 -1.14858,2.11254 0,0 z m -296.66667,87.83333 c 2.3126,-2.46827 0.82585,2.49381 0,0 z M 834.5,549.3956 c 45.40993,-4.44895 9.43231,-58.52928 -17.85845,-51.15883 31.97293,-6.61453 79.20376,40.58617 25.62672,50.22459 9.65795,-2.05817 -14.69946,5.4162 -7.76827,0.93424 z m 22.80423,-10.5205 c 6.78003,-8.15043 -13.66203,12.36834 0,0 z M 860.5,539 c -8.5e-4,-3.63142 -2.67048,4.81933 0,0 z M 101,549.5 c 1.14858,-2.11254 1.14858,2.11254 0,0 z m 164,-2.08965 c -16.39926,3.52009 -53.92171,-32.24529 -22.08866,-9.69084 3.09264,2.31862 45.85821,12.83583 22.08866,9.69084 z m -29.5826,-11.2767 c -1.64967,-14.60942 -5.89292,0.50084 0,0 z M 298,549.5 c 1.14858,-2.11254 1.14858,2.11254 0,0 z m -63,-1 c 1.14858,-2.11254 1.14858,2.11254 0,0 z M 379,548 c 1.01238,-2.78443 1.01238,2.78443 0,0 z m 321,0 c 3.07807,-4.65291 2.61334,4.41017 0,0 z m -403,-1 c 1.01238,-2.78443 1.01238,2.78443 0,0 z m -5,-1 c 1.01238,-2.78443 1.01238,2.78443 0,0 z m -4.66667,-1.66667 c 2.3126,-2.46827 0.82585,2.49381 0,0 z m -19.27914,-3.40594 c -28.0218,7.44781 -29.6489,-40.72414 -0.90701,-33.80156 -53.71801,1.38857 23.89052,45.80515 0.90701,33.80156 z m 39.44923,1.72027 c -19.13771,-49.71055 6.38708,-102.65394 32.54493,-144.55157 19.89303,-26.04711 44.11551,-51.12473 75.95119,-61.77541 -48.78816,31.92057 -94.41453,76.71819 -104.51041,136.54891 -8.36848,17.17272 -3.44005,77.54054 -3.05972,29.65766 5.40878,-91.08762 80.72685,-168.91314 169.98012,-183.1541 45.18023,-10.05817 -59.19873,12.58202 -13.96522,-2.184 40.68666,-8.9847 84.77932,-5.5231 123.28505,10.29822 -10.65329,-3.1387 -68.6679,-15.47925 -29.27338,-6.06813 72.58225,15.52728 135.19513,74.38805 151.29215,147.40664 -17.6923,-55.62027 -54.80045,-109.73951 -112.37341,-128.77834 -107.27646,-56.01997 -253.68394,14.65274 -280.63047,131.70521 -14.66907,21.28904 17.50261,55.9832 -9.24083,70.89491 z M 313,512 c -2.29716,-4.22507 -2.29716,4.22507 0,0 z m -1,-9.5 c -1.14858,-2.11254 -1.14858,2.11254 0,0 z m 2,-1 c -1.14858,-2.11254 -1.14858,2.11254 0,0 z m -8,-1.5 c -2.02425,-4.15383 -1.43143,3.90518 0,0 z m 60,-126.5 c -1.14858,-2.11254 -1.14858,2.11254 0,0 z m 278,-10 c -1.14858,-2.11254 -1.14858,2.11254 0,0 z m -4,-3 c -1.14858,-2.11254 -1.14858,2.11254 0,0 z M 392.5,348 c -8.5e-4,-3.63142 -2.67048,4.81933 0,0 z m 5.5,-3.5 c -1.14858,-2.11254 -1.14858,2.11254 0,0 z m 140,-23 c -1.14858,-2.11254 -1.14858,2.11254 0,0 z m -6,-5.5 c -14.02712,-3.1184 -11.76387,1.95867 0,0 z M 378,542.5 c 1.14858,-2.11254 1.14858,2.11254 0,0 z m 323.01733,-1.25 c 9.44792,-77.12087 -30.39147,-159.71321 -102.61527,-192.27394 -80.42406,-42.95754 -185.718,-14.61726 -243.5936,52.70955 -15.47821,11.19896 -41.77789,86.9556 -35.3053,70.09279 25.50087,-117.87218 175.17178,-186.70493 280.86734,-127.64421 41.59591,21.40297 79.13579,56.22145 91.33919,102.52315 9.24917,16.09126 25.53925,72.95797 22.22057,26.36574 -4.74631,-13.19252 -25.46856,-69.89883 -5.50123,-28.88946 7.13646,25.27241 17.37918,55.34703 11.6483,80.03413 1.03619,-35.58441 -25.42675,-13.9953 -14.39736,9.01111 0.70799,2.86175 -0.66187,8.37377 -4.66264,8.07114 z M 703,479.5 c -1.14858,-2.11254 -1.14858,2.11254 0,0 z m -49,-93 c -1.14858,-2.11254 -1.14858,2.11254 0,0 z m -87.5,-53.33333 c -3.53721,-4.35997 -1.52667,6.72568 0,0 z M 320.65337,540.53908 c -10.31911,-55.04409 10.6683,-113.24599 49.37889,-152.84426 -23.8889,37.92248 -51.19555,77.94099 -47.45628,125.06532 -0.30567,9.27623 -0.5816,18.58083 -1.92261,27.77894 z M 366.12756,396.25 c 2.05564,-4.62069 -6.29233,8.53247 0,0 z m 377.95139,144.16667 c 1.11618,-3.63707 0.5013,5.10606 0,0 z M 377.15789,536 c 0.85911,-4.59423 0.85911,4.59423 0,0 z M 77,536.5 c 1.148581,-2.11254 1.148581,2.11254 0,0 z m 210.30987,-5 c 1.19751,-9.57038 0.21617,12.30337 0,0 z M 856,534.5 c 1.14858,-2.11254 1.14858,2.11254 0,0 z M 289.06794,529 c -5.81823,-12.6245 0.76627,-12.37434 0,0 z M 376,528.5 c 1.14858,-2.11254 1.14858,2.11254 0,0 z m -80.71399,-8 c 1.30582,-7.84004 0.14025,10.50033 0,0 z M 859,523.5 c 1.14858,-2.11254 1.14858,2.11254 0,0 z m -629.69424,-4.06466 c 16.88532,-14.19316 -2.90049,9.06994 0,0 z M 230.5,520 c -8.5e-4,-3.63142 -2.67048,4.81933 0,0 z m 627.5,1.5 c 1.14858,-2.11254 1.14858,2.11254 0,0 z M 75.567294,520.10888 c 13.444578,-17.42605 43.758246,-23.54607 60.121586,-26.65987 -20.91872,6.3665 -43.751392,11.02316 -60.121586,26.65987 z m 780.837216,-1.26339 c 1.25833,-2.44927 2.10372,5.32142 0,0 z M 830.25,509.74095 c -14.75802,-12.7752 16.4321,6.91822 0,0 z M 838,510.5 c 1.14858,-2.11254 1.14858,2.11254 0,0 z m -698,-1 c 1.14858,-2.11254 1.14858,2.11254 0,0 z m 2,-1 c 1.14858,-2.11254 1.14858,2.11254 0,0 z m 234.19495,-2 c 1.71272,-4.31868 -0.19921,6.84454 0,0 z M 144,507.5 c 1.14858,-2.11254 1.14858,2.11254 0,0 z m 76.57341,-0.38122 c 14.26308,-9.36143 24.54169,-1.03169 0,0 z m -61.4857,-1.49893 c 5.75954,-3.63598 21.91493,-6.41067 6.54138,-1.69052 z M 741,505 c 3.38384,-4.72629 3.38384,4.72629 0,0 z m 73.5,-1.62432 c -8.59998,-6.98648 23.17682,9.46299 0,0 z M 152,504.5 c 1.14858,-2.11254 1.14858,2.11254 0,0 z m 3,-1 c 1.14858,-2.11254 1.14858,2.11254 0,0 z m 574.68711,-1.41527 c 3.42158,-4.93126 9.26027,9.4665 0,0 z M 158,502.5 c 1.14858,-2.11254 1.14858,2.11254 0,0 z m 90.33333,-0.16667 c 2.3126,-2.46827 0.82585,2.49381 0,0 z m -87,-1 c 2.3126,-2.46827 0.82585,2.49381 0,0 z m 32,0 c 2.3126,-2.46827 0.82585,2.49381 0,0 z M 196,501.01361 c 20.75414,-6.97655 15.34634,-1.67994 0,0 z m 57.33333,0.31972 c 2.3126,-2.46827 0.82585,2.49381 0,0 z m -88,-1 c 2.3126,-2.46827 0.82585,2.49381 0,0 z m 92,0 c 2.3126,-2.46827 0.82585,2.49381 0,0 z m 467.47917,-0.0164 c 4.73672,-3.27689 0.8038,2.64437 0,0 z M 806,500.5 c 1.14858,-2.11254 1.14858,2.11254 0,0 z m -637.66667,-1.16667 c 2.3126,-2.46827 0.82585,2.49381 0,0 z M 178.5,499.13466 c 11.27907,-6.41967 3.9001,2.71541 0,0 z M 248,499 c 3.07807,-4.65291 2.61334,4.41017 0,0 z m 13.33333,0.33333 c 2.3126,-2.46827 0.82585,2.49381 0,0 z M 377,499 c 1.01238,-2.78443 1.01238,2.78443 0,0 z m 425.33333,0.33333 c 2.3126,-2.46827 0.82585,2.49381 0,0 z m -630,-1 c 2.3126,-2.46827 0.82585,2.49381 0,0 z m 93,0 c 2.3126,-2.46827 0.82585,2.49381 0,0 z M 798,498.5 c 1.14858,-2.11254 1.14858,2.11254 0,0 z m -621.66667,-1.16667 c 2.3126,-2.46827 0.82585,2.49381 0,0 z m 615.08495,-0.68569 c -40.052,-13.10656 37.2168,0.25791 0,0 z M 188.8125,496.31689 c 4.73672,-3.27689 0.8038,2.64437 0,0 z M 216,496.12617 c 9.94589,-5.99033 6.94711,3.14273 0,0 z m -21.5,-1.61929 c 35.90557,-25.39979 16.72448,-78.87062 45.53817,-110.4196 46.14878,-91.57912 141.77426,-157.32231 244.58169,-163.79259 -35.81194,4.79748 -64.96527,15.99455 -97.43722,29.57852 -94.64295,42.61435 -164.39057,137.77865 -172.50964,241.76373 -6.00479,-1.31137 -15.74964,7.65059 -20.173,2.86994 z M 281.12756,327.25 c 2.20795,-4.5007 -7.40678,7.84753 0,0 z M 284,324.5 c -1.14858,-2.11254 -1.14858,2.11254 0,0 z m 30,-30 c 6.28653,-8.76163 -9.93792,10.37203 0,0 z m 36,-27 c -1.14858,-2.11254 -1.14858,2.11254 0,0 z m 3.12756,-2.25 c 2.05564,-4.62069 -6.29233,8.53247 0,0 z M 357.5,263 c -8.5e-4,-3.63142 -2.67048,4.81933 0,0 z m 3.99292,-1.98855 c -3.06866,-2.42747 -2.5145,4.23468 0,0 z M 386.5,248 c -3.17676,-4.40045 -3.64193,6.75346 0,0 z m 7.5,-3.09055 c -0.004,-4.1147 -13.86398,9.6142 0,0 z m 7.68973,-3.55305 c -14.31093,1.97799 -2.28203,2.99996 0,0 z M 404,240.5 c -1.14858,-2.11254 -1.14858,2.11254 0,0 z m 39,-12 c -1.14858,-2.11254 -1.14858,2.11254 0,0 z m 253,267 c 1.14858,-2.11254 1.14858,2.11254 0,0 z m 117.33333,-0.16667 c 2.3126,-2.46827 0.82585,2.49381 0,0 z M 378,494 c 1.01238,-2.78443 1.01238,2.78443 0,0 z m 299.52271,-0.11437 c -13.22685,-5.16388 24.33666,4.16678 0,0 z M 351.75,492.33772 c 4.05866,-3.23579 2.12462,2.37362 0,0 z M 714,491.5 c 1.14858,-2.11254 1.14858,2.11254 0,0 z m 41.25,-1.8076 c -28.95178,-7.43282 27.49673,-5.66177 8.23672,1.5977 z M 150,489.42714 c 29.43958,-7.34111 8.60605,-0.39977 0,0 z M 248.18045,488.75 c 22.22375,-15.76199 27.20552,9.39783 0,0 z M 722,490.5 c 1.14858,-2.11254 1.14858,2.11254 0,0 z M 316.15789,487 c 0.85911,-4.59423 0.85911,4.59423 0,0 z m 408.17548,-2.26544 c -3.57901,-15.60447 4.92706,7.79768 0,0 z M 165.75,486.33772 c 4.05866,-3.23579 2.12462,2.37362 0,0 z m 571.64301,-0.91951 c 4.47307,-10.38547 9.20321,9.06205 0,0 z M 172.5,485 c 21.11143,-5.9432 -2.89546,3.73448 0,0 z m 101.5,0.5 c 1.14858,-2.11254 1.14858,2.11254 0,0 z m 455.07895,-1.08333 c 1.11618,-3.63707 0.5013,5.10606 0,0 z M 182.75,483.33772 c 4.05866,-3.23579 2.12462,2.37362 0,0 z m 91.58333,-0.004 c 2.31282,-2.46812 0.82581,2.4929 0,0 z M 720,482 c 1.7976,-7.16772 1.7976,7.16772 0,0 z m 67.74841,0.52598 c -14.33071,-5.44377 27.20399,4.30553 0,0 z M 189.25,482.31067 c 6.19495,-3.40521 2.6011,2.37029 0,0 z m 7,-1 c 6.19495,-3.40521 2.6011,2.37029 0,0 z m 7,-1 c 6.19495,-3.40521 2.6011,2.37029 0,0 z M 694,479.42668 c 4.44989,-6.10789 3.84074,7.59638 0,0 z M 331,479.5 c 1.14858,-2.11254 1.14858,2.11254 0,0 z m 15.68541,-1.12898 c 2.7363,-6.31222 17.31165,0.69498 5.64004,0.40732 z M 759.5,479 c -4.24189,-3.52079 19.78289,3.80013 0,0 z m -91.83333,-0.66667 c 13.57315,-16.86587 15.56861,3.5863 0,0 z M 723,477 c 1.01238,-2.78443 1.01238,2.78443 0,0 z m 20.2,-0.2 c 6.15238,-5.78399 12.48833,8.30441 0,0 z m -24.12105,-1.38333 c 1.11618,-3.63707 0.5013,5.10606 0,0 z M 383,475.5 c 1.14858,-2.11254 1.14858,2.11254 0,0 z m 6,0 c 1.14858,-2.11254 1.14858,2.11254 0,0 z m 8,-1.53138 c 2.85205,-4.1783 3.81814,2.76133 0,0 z M 633,474 c 1.01238,-2.78443 1.01238,2.78443 0,0 z m -249,-0.5 c 1.14858,-2.11254 1.14858,2.11254 0,0 z m 334,-4 c 1.14858,-2.11254 1.14858,2.11254 0,0 z m -316,-5 c 1.14858,-2.11254 1.14858,2.11254 0,0 z m 273,0 c 1.14858,-2.11254 1.14858,2.11254 0,0 z m 20.18346,-19.25 c -3.78662,-7.03779 -8.65466,-26.17726 -2.41717,-7.81521 z M 353,442.5 c 2.08737,-5.75689 1.05667,5.39701 0,0 z m 56,-2 c 1.14858,-2.11254 1.14858,2.11254 0,0 z M 356.5,435 c 11.78157,-24.4344 0.46312,9.01278 0,0 z m 7,-10 c 2.70691,-4.67494 0.004,3.43341 0,0 z m 61.5,-1.37756 c 4.57261,-3.84559 3.53555,-2.97341 0,0 z M 429,423.5 c 1.14858,-2.11254 1.14858,2.11254 0,0 z m 257,0 c 1.14858,-2.11254 1.14858,2.11254 0,0 z m -321.91667,-0.78297 c 3.45299,-4.86769 4.3306,0.13746 0,0 z M 685,421.5 c 1.14858,-2.11254 1.14858,2.11254 0,0 z m -256,-0.87756 c 4.57261,-3.84559 3.53555,-2.97341 0,0 z m -60.60048,-2.95241 c 35.89491,-53.10805 103.75942,-80.4538 166.66929,-72.02814 -64.1981,-6.6038 -127.33702,20.7398 -166.66929,72.02814 z M 370,416.5 c -1.14858,-2.11254 -1.14858,2.11254 0,0 z m 2.5,-3.5 c -8.5e-4,-3.63142 -2.67048,4.81933 0,0 z M 411,376.5 c -1.14858,-2.11254 -1.14858,2.11254 0,0 z m 280.7715,40.75 c -14.52101,-12.75942 -13.83503,-36.12031 -1.63794,-9.05 -0.49894,0.808 11.21925,14.08055 1.63794,9.05 z M 694,417.55902 c -0.6018,-4.15213 -2.91951,1.23891 0,0 z m -16,-24 c -0.6018,-4.15213 -2.91951,1.23891 0,0 z m -245,24.06342 c 4.57261,-3.84559 3.53555,-2.97341 0,0 z M 437.5,414 c 2.70691,-4.67494 0.004,3.43341 0,0 z m 4.48987,-2.94845 c 19.29069,-12.29781 18.96721,-7.12515 0,0 z M 680,412.5 c 1.14858,-2.11254 1.14858,2.11254 0,0 z m -2.59549,-3.65451 c 1.25833,-2.44927 2.10372,5.32142 0,0 z M 670.12339,398.75 c -3.35991,-8.89757 12.32655,18.57377 0,0 z M 464,400.16871 c 9.70545,-9.35445 5.39226,1.56008 0,0 z M 691,398.5 c 1.14858,-2.11254 1.14858,2.11254 0,0 z m -214.55165,-2.61975 c 23.58342,-8.77335 -4.33931,4.4468 0,0 z m 212.95616,-0.0348 c 1.25833,-2.44927 2.10372,5.32142 0,0 z m -197.13548,-3.53848 c 5.10376,-3.21797 2.34837,2.37872 0,0 z m 36.98097,0.004 c 6.19495,-3.40521 2.6011,2.37029 0,0 z m -28,-1.02692 c 10.94716,-3.5452 3.42338,2.38825 0,0 z m 16.51791,-0.008 c 4.67417,0.0118 10.76224,0.0272 0,0 z m 143.8009,-13.85016 c -6.25976,-16.06758 -55.14435,-36.60641 -47.89852,-39.52612 17.46227,8.51274 56.46298,38.5351 53.28223,45.36425 -1.91214,-1.82237 -3.56288,-3.92131 -5.38371,-5.83813 z M 673,387.55902 c -0.6018,-4.15213 -2.91951,1.23891 0,0 z m -8.38095,-10.08283 c -5.97323,-2.27542 6.02388,6.03548 0,0 z M 651,364.65499 c -3.7957,-3.37477 -6.65548,-5.91741 0,0 z m -7,-6.09597 c -0.6018,-4.15213 -2.91951,1.23891 0,0 z m -4,-3 c -0.6018,-4.15213 -2.91951,1.23891 0,0 z M 636,352.5 c -1.14858,-2.11254 -1.14858,2.11254 0,0 z m -11,-7 c -1.14858,-2.11254 -1.14858,2.11254 0,0 z m -2,-0.94098 c -0.6018,-4.15213 -2.91951,1.23891 0,0 z m 28.70484,34.0005 c -11.86267,-9.12437 -35.23398,-31.79893 -9.35847,-10.49538 6.04062,3.72741 26.48363,27.75132 9.35847,10.49538 z M 378,380.5 c 1.14858,-2.11254 1.14858,2.11254 0,0 z m 260,-30 c 1.14858,-2.11254 1.14858,2.11254 0,0 z M 545,348 c 1.02036,-4.86921 15.66043,8.34864 0,0 z m 86,-2.5 c 1.14858,-2.11254 1.14858,2.11254 0,0 z m -2.59549,-1.65451 c 1.25833,-2.44927 2.10372,5.32142 0,0 z M 424.71104,333.14413 c 13.88638,-19.31307 26.23742,-0.90177 0,0 z m 173.45511,-0.0203 c -1.64389,-4.96046 5.21488,3.04909 0,0 z M 420.63837,331.5 c 3.77569,-8.06998 2.61246,5.12394 0,0 z M 438,323.5 c 1.14858,-2.11254 1.14858,2.11254 0,0 z m 119.33333,-9.16667 c 2.3126,-2.46827 0.82585,2.49381 0,0 z m -5.52083,-1.01644 c 4.73672,-3.27689 0.8038,2.64437 0,0 z m -5,-1 c 4.73672,-3.27689 0.8038,2.64437 0,0 z m -8.0625,-0.97917 c 4.05866,-3.23579 2.12462,2.37362 0,0 z m -8,-1.04345 c 8.63332,-3.50937 2.92104,2.3386 0,0 z m -74,-82.95655 c 4.05866,-3.23579 2.12462,2.37362 0,0 z m 6,-1 c 4.05866,-3.23579 2.12462,2.37362 0,0 z M 469,225 c 12.64428,-9.4851 2.71496,5.93381 0,0 z m 10.26903,-0.69299 c 5.10376,-3.21797 2.34837,2.37872 0,0 z M 494,219.5 c 1.14858,-2.11254 1.14858,2.11254 0,0 z"
       id="path3" /></g></svg>
